<svg width="11" height="11" viewBox="0 0 11 11" fill="none" xmlns="http://www.w3.org/2000/svg">
<path fill-rule="evenodd" clip-rule="evenodd" d="M1.16665 2.20825H2.24998V1.53117C2.24998 1.23201 2.49249 0.989502 2.79165 0.989502C3.0908 0.989502 3.33331 1.23201 3.33331 1.53117V2.20825H7.66665V1.53117C7.66665 1.23201 7.90915 0.989502 8.20831 0.989502C8.50748 0.989502 8.74998 1.23201 8.74998 1.53117V2.20825H9.83331C10.4316 2.20825 10.9166 2.69328 10.9166 3.29159V9.7916C10.9166 10.3899 10.4316 10.8749 9.83331 10.8749H1.16665C0.568338 10.8749 0.083313 10.3899 0.083313 9.7916V3.29159C0.083313 2.69328 0.568338 2.20825 1.16665 2.20825ZM1.16665 9.7916V5.45826H9.83331V9.7916H1.16665ZM9.83331 3.29159V4.37492H1.16665V3.29159H9.83331Z" fill="black"/>
</svg>
