<svg width="16" height="16" viewBox="0 0 16 16" fill="none" xmlns="http://www.w3.org/2000/svg">
<path d="M3.83301 1.33301H12.167C13.5474 1.33318 14.6668 2.45255 14.667 3.83301V12.167C14.6668 13.5474 13.5474 14.6668 12.167 14.667H3.83301C2.45255 14.6668 1.33318 13.5474 1.33301 12.167V3.83301C1.33318 2.45255 2.45255 1.33318 3.83301 1.33301ZM12.3389 4.42871C11.7688 3.8586 10.8903 3.7877 10.2432 4.21484C10.1501 4.27621 10.063 4.34805 9.98242 4.42871L7.16602 7.24316L6.43457 6.51172C5.7837 5.8609 4.72802 5.8609 4.07715 6.51172C3.42658 7.16246 3.4267 8.21734 4.07715 8.86816L5.98828 10.7793C6.63908 11.4301 7.69386 11.43 8.34473 10.7793L12.3389 6.78516C12.9897 6.1343 12.9897 5.07957 12.3389 4.42871Z" fill="black" stroke="black" stroke-width="1.66667"/>
</svg>
