<svg width="16" height="16" viewBox="0 0 16 16" fill="none" xmlns="http://www.w3.org/2000/svg">
<path fill-rule="evenodd" clip-rule="evenodd" d="M3.83333 0.5C1.99238 0.5 0.5 1.99238 0.5 3.83333V12.1667C0.5 14.0076 1.99238 15.5 3.83333 15.5H12.1667C14.0076 15.5 15.5 14.0076 15.5 12.1667V3.83333C15.5 1.99238 14.0076 0.5 12.1667 0.5H3.83333ZM13.8334 3.83333C13.8334 2.91286 13.0871 2.16667 12.1667 2.16667H3.83333C2.91286 2.16667 2.16667 2.91286 2.16667 3.83333V12.1667C2.16667 13.0872 2.91286 13.8333 3.83333 13.8333H12.1667C13.0871 13.8333 13.8334 13.0872 13.8334 12.1667V3.83333Z" fill="black"/>
</svg>
